<?xml version="1.0" standalone="no"?><svg xmlns="http://www.w3.org/2000/svg" viewBox="0 0 1440 320"><path fill="#ffffff" fill-opacity="1" d="M0,160L24,160C48,160,96,160,144,133.3C192,107,240,53,288,58.7C336,64,384,128,432,144C480,160,528,128,576,138.7C624,149,672,203,720,208C768,213,816,171,864,154.7C912,139,960,149,1008,133.3C1056,117,1104,75,1152,48C1200,21,1248,11,1296,10.7C1344,11,1392,21,1416,26.7L1440,32L1440,320L1416,320C1392,320,1344,320,1296,320C1248,320,1200,320,1152,320C1104,320,1056,320,1008,320C960,320,912,320,864,320C816,320,768,320,720,320C672,320,624,320,576,320C528,320,480,320,432,320C384,320,336,320,288,320C240,320,192,320,144,320C96,320,48,320,24,320L0,320Z"></path></svg>