<?xml version="1.0" standalone="no"?>
<svg viewBox="0 0 200 200" xmlns="http://www.w3.org/2000/svg">
  <path fill="#FF0066" d="M44.1,-76.4C57.3,-68.8,68.1,-57.2,75,-43.8C81.9,-30.4,84.9,-15.2,84.4,-0.3C83.9,14.6,79.9,29.2,73.4,43.3C66.9,57.5,58,71.2,45.3,79.1C32.7,87,16.3,89,0.8,87.6C-14.7,86.1,-29.4,81.2,-43,73.9C-56.6,66.6,-69.1,56.9,-77.4,44.2C-85.7,31.4,-89.7,15.7,-90.5,-0.4C-91.2,-16.6,-88.6,-33.1,-80.6,-46.3C-72.5,-59.4,-59,-69.2,-44.7,-76.1C-30.4,-83,-15.2,-87,0.1,-87.2C15.5,-87.5,30.9,-83.9,44.1,-76.4Z" transform="translate(100 100)" />
</svg>
